# AST/ASF file generated using VICON BodyLanguage
# -----------------------------------------------
:version 1.10
:name VICON
:units
  mass 1.0
  length 0.45
  angle deg
:documentation
   .ast/.asf automatically generated from VICON data using
   VICON BodyBuilder and BodyLanguage model FoxedUp or BRILLIANT.MOD
:root
   order TX TY TZ RX RY RZ
   axis XYZ
   position 0 0 0  
   orientation 0 0 0 
:bonedata
  begin
     id 1 
     name lhipjoint
     direction 0.653368 -0.678499 0.335782 
     length 2.51848 
     axis 0 0 0  XYZ
  end
  begin
     id 2 
     name lfemur
     direction 0.34202 -0.939693 0  
     length 6.57749  
     axis 0 0 20  XYZ
    dof rx ry rz
    limits (-160.0 20.0)
           (-70.0 70.0)
           (-60.0 70.0)
  end
  begin
     id 3 
     name ltibia
     direction 0.34202 -0.939693 0   
     length 7.94618   
     axis 0 0 20   XYZ
    dof rx
    limits (-10.0 170.0)
  end
  begin
     id 4 
     name lfoot
     direction 0.0811271 -0.222895 0.971461   
     length 2.31339   
     axis -90 7.62852e-016 20   XYZ
    dof rx rz
    limits (-45.0 90.0)
           (-70.0 20.0)
  end
  begin
     id 5 
     name ltoes
     direction 1.53568e-011 -4.21885e-011 1   
     length 1.15935   
     axis -90 7.62852e-016 20   XYZ
    dof rx
    limits (-90.0 20.0)
  end
  begin
     id 6 
     name rhipjoint
     direction -0.640058 -0.688614 0.340788   
     length 2.48149  
     axis 0 0 0  XYZ 
  end
  begin
     id 7 
     name rfemur
     direction -0.34202 -0.939693 0   
     length 6.57875   
     axis 0 0 -20   XYZ
    dof rx ry rz
    limits (-160.0 20.0)
           (-70.0 70.0)
           (-70.0 60.0)
  end
  begin
     id 8 
     name rtibia
     direction -0.34202 -0.939693 0   
     length 7.977   
     axis 0 0 -20   XYZ
    dof rx
    limits (-10.0 170.0)
 end
 begin
     id 9 
     name rfoot
     direction -0.0979793 -0.269196 0.958089   
     length 2.19857  
     axis -90 -7.62852e-016 -20   XYZ
    dof rx rz
    limits (-45.0 90.0)
           (-20.0 70.0)
  end
  begin
     id 10 
     name rtoes
     direction -1.53556e-011 -4.21868e-011 1   
     length 1.09838   
     axis -90 -7.62852e-016 -20   XYZ
    dof rx
    limits (-90.0 20.0)
  end
  begin
     id 11 
     name lowerback
     direction 0.0149039 0.998517 -0.0523597   
     length 2.10809   
     axis 0 0 0   XYZ
    dof rx ry rz
    limits (-20.0 45.0)
           (-30.0 30.0)
           (-30.0 30.0)
  end
  begin
     id 12 
     name upperback
     direction -0.00882659 0.999418 -0.0329624   
     length 2.1102   
     axis 0 0 0   XYZ
    dof rx ry rz
    limits (-20.0 45.0)
           (-30.0 30.0)
           (-30.0 30.0)
  end
  begin
     id 13 
     name thorax
     direction -0.0165585 0.999826 -0.0085833   
     length 2.11039   
     axis 0 0 0   XYZ
    dof rx ry rz
    limits (-20.0 45.0)
           (-30.0 30.0)
           (-30.0 30.0)
  end
  begin
     id 14 
     name lowerneck
     direction -0.0130877 0.999911 0.00260353   
     length 1.73253   
     axis 0 0 0   XYZ
    dof rx ry rz
    limits (-20.0 45.0)
           (-30.0 30.0)
           (-30.0 30.0)
  end
  begin
     id 15 
     name upperneck
     direction -0.0348454 0.928205 -0.370435   
     length 1.66692   
     axis 0 0 0   XYZ
    dof rx ry rz
    limits (-20.0 45.0)
           (-30.0 30.0)
           (-30.0 30.0)
  end
  begin
     id 16
     name head
     direction -0.00807754 0.992494 -0.122026  
     length 1.72765  
     axis 0 0 0   XYZ
    dof rx ry rz
    limits (-20.0 45.0)
           (-30.0 30.0)
           (-30.0 30.0)
  end
  begin
     id 17 
     name lclavicle
     direction 0.987582 0.144023 0.0627671  
     length 3.49235  
     axis 0 0 0   XYZ
    dof ry rz
    limits (-20.0 10.0)
           (0.0 20.0)
  end
  begin
     id 18 
     name lhumerus
     direction 1 -4.48958e-011 -1.45183e-018   
     length 5.41917   
     axis 180 -30 -90   XYZ
    dof rx ry rz
    limits (-60.0 90.0)
           (-90.0 90.0)
           (-90.0 90.0)
  end
  begin
     id 19
     name lradius
     direction 1 -4.48999e-011 5.75106e-027   
     length 2.44373   
     axis 180 -30 -90   XYZ
    dof rx
    limits (-10.0 170.0)
  end
  begin
     id 20
     name lwrist
     direction 1 -4.48987e-011 1.53461e-026   
     length 1.22186   
     axis -1.09697e-014 90 90   XYZ
    dof ry
    limits (-180.0 0.0)
 end
  begin
     id 21 
     name lhand
     direction 1 -4.48881e-011 3.06923e-026   
     length 0.727502   
     axis -1.95843e-014 90 90   XYZ
    dof rx rz
    limits (-90.0 90.0)
           (-45.0 45.0)
  end
  begin
     id 22 
     name lfingers
     direction 1 -4.48907e-011 6.13845e-026   
     length 0.586531   
     axis -3.91686e-014 90 90   XYZ
    dof rx
    limits (0.0 90.0)
  end
  begin
     id 23
     name lthumb
     direction 0.707107 -6.3487e-011 0.707107   
     length 0.842145   
     axis -90 45 2.85299e-015   XYZ
    dof rx rz
    limits (-45.0 45.0)
           (-45.0 45.0)
  end
  begin
     id 24 
     name rclavicle
     direction -0.980998 0.169556 0.0943023   
     length 3.29272  
     axis 0 0 0   XYZ 
    dof ry rz
    limits (-10.0 20.0)
           (-20.0 0.0)
  end
  begin
     id 25 
     name rhumerus
     direction -1 -1.83355e-005 2.45537e-005  
     length 5.58976   
     axis 180 30 90   XYZ
    dof rx ry rz
    limits (-90.0 60.0)
           (-90.0 90.0)
           (-90.0 90.0)
  end
  begin
     id 26 
     name rradius
     direction -1 -4.48967e-011 5.97228e-027   
     length 2.4806   
     axis 180 30 90   XYZ
    dof rx
    limits (-10.0 170.0)
  end
  begin
     id 27 
     name rwrist
     direction -1 -4.48963e-011 1.53461e-026   
     length 1.2403   
     axis -1.09697e-014 -90 -90   XYZ
    dof ry
    limits (-180.0 0.0)
  end
  begin
     id 28
     name rhand
     direction -1 -4.48881e-011 3.06923e-026   
     length 0.816009   
     axis -1.95843e-014 -90 -90   XYZ
    dof rx rz
    limits (-90.0 90.0)
           (-45.0 45.0)
  end
  begin
     id 29
     name rfingers
     direction -1 -4.49018e-011 6.13845e-026   
     length 0.657887   
     axis -3.91686e-014 -90 -90   XYZ
    dof rx
    limits (0.0 90.0)
  end
  begin
     id 30
     name rthumb
     direction -0.707107 -6.34872e-011 0.707107   
     length 0.944599   
     axis -90 -45 -2.85299e-015   XYZ
    dof rx rz
    limits (-45.0 45.0)
           (-45.0 45.0)
  end
:hierarchy
  begin
    root lhipjoint rhipjoint lowerback
    lhipjoint lfemur
    lfemur ltibia
    ltibia lfoot
    lfoot ltoes
    rhipjoint rfemur
    rfemur rtibia
    rtibia rfoot
    rfoot rtoes
    lowerback upperback
    upperback thorax
    thorax lowerneck lclavicle rclavicle
    lowerneck upperneck
    upperneck head
    lclavicle lhumerus
    lhumerus lradius
    lradius lwrist
    lwrist lhand lthumb
    lhand lfingers
    rclavicle rhumerus
    rhumerus rradius
    rradius rwrist
    rwrist rhand rthumb
    rhand rfingers
  end

#!OML:ASF F:\VICON\USERDATA\INSTALL\rory3\rory3.ASF
:FULLY-SPECIFIED
:DEGREES
211
root 4.47887 16.5351 -15.1802 27.9967 6.41756 -4.91565
lowerback -18.762 -0.222625 6.26189
upperback -10.6569 -1.30573 5.15813
thorax -1.02845 -0.767683 1.7158
lowerneck -12.6415 -2.58636 -0.626171
upperneck 42.7687 -3.17077 -1.87967
head 18.044 -1.62738 -1.34366
rclavicle -2.53947e-014 7.15625e-014
rhumerus -51.1531 -20.1707 -59.0844
rradius 12.5933
rwrist -5.39512
rhand -16.6168 21.5315
rfingers 7.12502
rthumb 9.60512 -8.22953
lclavicle -2.53947e-014 7.15625e-014
lhumerus -56.6518 -3.36473 93.0987
lradius 29.319
lwrist 2.5049
lhand 1.66496 16.197
lfingers 7.12502
lthumb 27.1841 44.2587
rfemur -40.9843 3.2088 35.6214
rtibia 29.4101
rfoot -30.1337 -28.696
rtoes 20.0675
lfemur -19.2131 21.3449 -26.5345
ltibia 38.9718
lfoot 45.4134 25.3801
ltoes -4.9756
212
root 4.48078 16.5473 -15.1859 28.1057 6.35363 -5.08007
lowerback -18.9116 -0.164744 6.44667
upperback -10.5066 -1.28757 5.19125
thorax -0.794138 -0.759775 1.64662
lowerneck -12.9628 -2.58055 -0.635657
upperneck 42.7299 -3.15954 -1.87122
head 18.1083 -1.62247 -1.34302
rclavicle -1.0312e-014 1.27222e-014
rhumerus -50.8578 -20.7199 -58.7937
rradius 12.3933
rwrist -4.98896
rhand -16.3314 21.2654
rfingers 7.12502
rthumb 9.88044 -8.48275
lclavicle -1.0312e-014 1.27222e-014
lhumerus -56.3154 -3.26875 92.9476
lradius 29.3072
lwrist 2.39807
lhand 1.55568 15.787
lfingers 7.12502
lthumb 27.0796 43.8651
rfemur -41.3173 3.01327 35.8651
rtibia 29.4184
rfoot -29.3537 -29.1786
rtoes 18.4597
lfemur -19.3773 21.4012 -26.4866
ltibia 38.9469
lfoot 46.315 24.2993
ltoes -8.98913
213
root 4.48096 16.5383 -15.1944 28.1827 6.35246 -5.16209
lowerback -18.9227 -0.229076 6.54799
upperback -10.235 -1.4159 5.32017
thorax -0.494871 -0.816912 1.69898
lowerneck -14.0851 -2.48896 -0.664379
upperneck 42.8536 -2.96723 -1.94846
head 18.4933 -1.55453 -1.37124
rclavicle -1.75427e-014 2.22639e-014
rhumerus -50.0257 -20.8219 -59.0858
rradius 12.3346
rwrist -4.98326
rhand -16.0324 21.1894
rfingers 7.12502
rthumb 10.1689 -8.5448
lclavicle -1.75427e-014 2.22639e-014
lhumerus -55.5952 -2.96175 92.8567
lradius 29.18
lwrist 2.37777
lhand 1.40107 15.6765
lfingers 7.12502
lthumb 26.9317 43.7774
rfemur -41.2187 2.8654 36.0497
rtibia 29.4014
rfoot -29.8179 -28.107
rtoes 20.2735
lfemur -19.5167 21.3849 -26.4637
ltibia 38.9768
lfoot 44.9225 26.3868
ltoes -3.56976
214
root 4.48099 16.5538 -15.1902 28.2062 6.24374 -5.02388
lowerback -19.0339 -0.126498 6.43717
upperback -10.46 -1.25136 5.10312
thorax -0.681572 -0.74127 1.56222
lowerneck -13.0201 -2.5829 -0.566472
upperneck 42.6667 -3.18749 -1.86459
head 18.0831 -1.62248 -1.35698
rclavicle -2.24875e-014 4.85035e-014
rhumerus -50.7099 -20.2626 -59.5118
rradius 12.798
rwrist -5.98714
rhand -15.3639 21.4559
rfingers 7.12502
rthumb 10.8138 -8.24569
lclavicle -2.24875e-014 4.85035e-014
lhumerus -56.2071 -3.38006 92.8834
lradius 29.2695
lwrist 2.35485
lhand 1.26401 15.7883
lfingers 7.12502
lthumb 26.8005 43.9094
rfemur -41.5548 2.88043 35.8358
rtibia 29.5294
rfoot -26.4581 -30.0598
rtoes 13.1645
lfemur -19.4741 21.4119 -26.6524
ltibia 38.8625
lfoot 45.2228 25.9619
ltoes -4.65945
215
root 4.48009 16.5581 -15.1909 28.1869 6.20806 -5.01815
lowerback -19.0689 -0.118434 6.42717
upperback -10.5148 -1.23779 5.0759
thorax -0.723638 -0.736183 1.54202
lowerneck -12.5434 -2.60646 -0.663938
upperneck 42.522 -3.23047 -1.77752
head 17.8726 -1.64834 -1.29014
rclavicle -4.74598e-015 8.74653e-015
rhumerus -50.825 -20.1554 -59.5418
rradius 12.8945
rwrist -6.13097
rhand -14.9286 20.2829
rfingers 7.12502
rthumb 11.2337 -9.39635
lclavicle -4.74598e-015 8.74653e-015
lhumerus -56.4342 -3.45047 92.9115
lradius 29.3839
lwrist 2.44992
lhand 1.12342 15.8817
lfingers 7.12502
lthumb 26.666 44.0233
rfemur -41.6287 2.82419 35.8495
rtibia 29.5854
rfoot -27.5185 -29.7581
rtoes 15.9444
lfemur -19.4482 21.4353 -26.6675
ltibia 38.8298
lfoot 45.1498 26.2265
ltoes -4.03826
216
root 4.47982 16.5585 -15.1974 28.2182 6.20276 -5.05216
lowerback -18.9729 -0.127158 6.45706
upperback -10.5967 -1.23815 5.09245
thorax -0.86291 -0.740982 1.5455
lowerneck -12.4703 -2.59617 -0.706031
upperneck 42.589 -3.21823 -1.7437
head 17.8956 -1.64541 -1.26501
rclavicle -8.57259e-015 -7.95139e-016
rhumerus -50.8292 -20.1951 -59.3779
rradius 12.8202
rwrist -6.13639
rhand -14.2084 19.337
rfingers 7.12502
rthumb 11.9282 -10.3032
lclavicle -8.57259e-015 -7.95139e-016
lhumerus -56.53 -3.38012 92.8595
lradius 29.3268
lwrist 2.38361
lhand 1.0522 15.9636
lfingers 7.12502
lthumb 26.5978 44.1156
rfemur -41.7243 2.86314 35.8759
rtibia 29.6777
rfoot -27.7778 -29.6096
rtoes 16.704
lfemur -19.4764 21.408 -26.6549
ltibia 38.7673
lfoot 44.8052 27.0056
ltoes -2.35281
217
root 4.47924 16.5563 -15.2021 28.215 6.20781 -5.09245
lowerback -18.8634 -0.141542 6.49365
upperback -10.6278 -1.24982 5.11394
thorax -0.953951 -0.750198 1.54764
lowerneck -12.523 -2.57844 -0.705837
upperneck 42.6624 -3.19331 -1.74203
head 17.9542 -1.6342 -1.26345
rclavicle -7.42958e-015 1.98785e-014
rhumerus -50.7269 -19.849 -59.7017
rradius 12.9921
rwrist -6.67574
rhand -13.49 18.478
rfingers 7.12502
rthumb 12.6208 -11.1207
lclavicle -7.42958e-015 1.98785e-014
lhumerus -56.5726 -3.24117 92.7327
lradius 29.3332
lwrist 2.18742
lhand 1.21267 16.1807
lfingers 7.12502
lthumb 26.7514 44.3093
rfemur -41.6929 2.80595 35.957
rtibia 29.6005
rfoot -28.1711 -29.4182
rtoes 17.3187
lfemur -19.518 21.395 -26.6094
ltibia 38.8465
lfoot 45.4578 26.6208
ltoes -5.09084
218
root 4.47562 16.5518 -15.2033 28.1247 6.20578 -5.00786
lowerback -18.7491 -0.259457 6.33746
upperback -10.4412 -1.38609 5.18166
thorax -0.802353 -0.805936 1.68002
lowerneck -13.1663 -2.50657 -0.693762
upperneck 42.7497 -3.05699 -1.80113
head 18.1811 -1.58183 -1.28731
rclavicle -1.02871e-014 -3.18055e-015
rhumerus -50.1598 -19.466 -60.2104
rradius 13.0804
rwrist -7.06703
rhand -12.7662 17.6232
rfingers 7.12502
rthumb 13.3185 -11.9311
lclavicle -1.02871e-014 -3.18055e-015
lhumerus -56.1979 -2.89017 92.5133
lradius 29.2909
lwrist 1.97674
lhand 1.31572 16.3363
lfingers 7.12502
lthumb 26.85 44.4498
rfemur -41.4772 2.96711 35.8057
rtibia 29.4883
rfoot -29.0279 -29.273
rtoes 18.845
lfemur -19.4799 21.4159 -26.6393
ltibia 38.9588
lfoot 44.8813 26.7288
ltoes -3.62036
219
root 4.47737 16.5439 -15.2109 28.2134 6.13433 -5.10227
lowerback -18.8108 -0.159742 6.45363
upperback -10.6578 -1.26024 5.09546
thorax -1.0124 -0.756141 1.54955
lowerneck -12.4013 -2.53652 -0.555442
upperneck 42.6979 -3.15742 -1.79299
head 17.9371 -1.60313 -1.30597
rclavicle 9.06955e-015 -7.15625e-015
rhumerus -50.7403 -19.3243 -60.03
rradius 13.1071
rwrist -6.90245
rhand -11.8489 17.2098
rfingers 7.12502
rthumb 14.2026 -12.2847
lclavicle 9.06955e-015 -7.15625e-015
lhumerus -56.6308 -2.99009 92.3823
lradius 29.2046
lwrist 1.72683
lhand 1.24571 16.0329
lfingers 7.12502
lthumb 26.783 44.1567
rfemur -41.454 2.76808 36.0163
rtibia 29.43
rfoot -29.3728 -28.3866
rtoes 20.59
lfemur -19.6915 21.5053 -26.6599
ltibia 39.0527
lfoot 45.17 26.1155
ltoes -4.73766
220
root 4.47799 16.5454 -15.2168 28.29 6.04411 -5.16227
lowerback -18.901 -0.107746 6.48384
upperback -10.6746 -1.20467 5.08055
thorax -0.98543 -0.729583 1.52608
lowerneck -12.1677 -2.55435 -0.581594
upperneck 42.61 -3.20153 -1.73473
head 17.8236 -1.61961 -1.27359
rclavicle -1.07841e-014 -1.43125e-014
rhumerus -50.8929 -19.8992 -59.3148
rradius 12.8304
rwrist -5.84932
rhand -10.7568 16.9204
rfingers 7.12502
rthumb 15.2548 -12.4971
lclavicle -1.07841e-014 -1.43125e-014
lhumerus -56.5987 -3.07913 92.3947
lradius 29.0345
lwrist 1.71143
lhand 1.02058 15.6192
lfingers 7.12502
lthumb 26.5675 43.7758
rfemur -41.54 2.7801 36.0756
rtibia 29.4256
rfoot -28.7658 -28.3665
rtoes 19.8096
lfemur -19.8388 21.5696 -26.7008
ltibia 39.0962
lfoot 44.2329 28.1912
ltoes -0.222011
221
root 4.47605 16.5527 -15.216 28.238 6.03363 -5.03872
lowerback -18.9585 -0.16072 6.32173
upperback -10.5653 -1.26327 5.07254
thorax -0.831277 -0.748213 1.5947
lowerneck -12.185 -2.55251 -0.685433
upperneck 42.4706 -3.20217 -1.64136
head 17.7512 -1.62554 -1.20812
rclavicle -8.07563e-015 -1.59028e-015
rhumerus -50.8928 -20.8168 -58.3246
rradius 12.4875
rwrist -4.3867
rhand -9.47757 16.6222
rfingers 7.12502
rthumb 16.4867 -12.6973
lclavicle -8.07563e-015 -1.59028e-015
lhumerus -56.4409 -3.09543 92.4336
lradius 29.0135
lwrist 1.86308
lhand 0.899935 15.5196
lfingers 7.12502
lthumb 26.4521 43.6937
rfemur -41.6195 3.07437 35.786
rtibia 29.4457
rfoot -27.0843 -29.6802
rtoes 15.5721
lfemur -19.7621 21.5304 -26.7832
ltibia 39.1092
lfoot 43.3534 29.9611
ltoes 3.02738
222
root 4.47785 16.5563 -15.216 28.2902 6.03056 -5.10509
lowerback -19.0087 -0.129517 6.41561
upperback -10.6073 -1.23873 5.06767
thorax -0.855074 -0.740845 1.54199
lowerneck -12.168 -2.56495 -0.681695
upperneck 42.5154 -3.21474 -1.66356
head 17.7723 -1.63285 -1.22227
rclavicle -2.35063e-014 1.51076e-014
rhumerus -50.9322 -20.7148 -58.2863
rradius 12.5147
rwrist -4.41809
rhand -8.1398 16.3773
rfingers 7.12502
rthumb 17.7743 -12.8304
lclavicle -2.35063e-014 1.51076e-014
lhumerus -56.5407 -3.09327 92.3747
lradius 29.069
lwrist 1.84972
lhand 1.0012 15.5002
lfingers 7.12502
lthumb 26.549 43.6596
rfemur -41.7855 2.74498 36.0114
rtibia 29.4808
rfoot -25.6611 -30.0833
rtoes 12.2597
lfemur -19.8544 21.5405 -26.7662
ltibia 39.126
lfoot 45.7091 24.5659
ltoes -8.92008
223
root 4.4753 16.55 -15.2168 28.1639 6.10834 -5.0823
lowerback -18.8721 -0.154075 6.38975
upperback -10.6019 -1.25281 5.04822
thorax -0.918264 -0.748506 1.53423
lowerneck -12.1788 -2.5986 -0.66681
upperneck 42.5417 -3.26853 -1.67325
head 17.7895 -1.65315 -1.24004
rclavicle 1.55301e-014 9.54166e-015
rhumerus -50.8133 -19.7934 -59.1758
rradius 12.9226
rwrist -5.68889
rhand -7.01385 15.6788
rfingers 7.12502
rthumb 18.8575 -13.4271
lclavicle 1.55301e-014 9.54166e-015
lhumerus -56.6019 -3.1598 92.3537
lradius 29.0243
lwrist 1.86451
lhand 0.948961 15.2288
lfingers 7.12502
lthumb 26.499 43.3958
rfemur -41.6335 2.87479 35.9476
rtibia 29.5692
rfoot -26.9817 -29.7423
rtoes 14.6521
lfemur -19.7017 21.5104 -26.6815
ltibia 39.1043
lfoot 45.2302 27.5843
ltoes -4.66925
224
root 4.47352 16.5434 -15.2241 28.1796 5.92419 -5.06914
lowerback -18.8136 -0.121082 6.31447
upperback -10.5767 -1.19485 5.0258
thorax -0.917096 -0.716987 1.56235
lowerneck -12.3026 -2.58305 -0.604313
upperneck 42.5404 -3.24752 -1.71069
head 17.819 -1.63927 -1.26798
rclavicle -1.97294e-014 2.70347e-014
rhumerus -50.5314 -18.869 -60.1713
rradius 13.2761
rwrist -6.72599
rhand -6.01844 14.93
rfingers 7.12502
rthumb 19.8146 -14.08
lclavicle -1.97294e-014 2.70347e-014
lhumerus -56.5064 -3.17675 92.3394
lradius 28.8974
lwrist 1.91667
lhand 0.829238 15.0567
lfingers 7.12502
lthumb 26.3844 43.2409
rfemur -41.6242 3.14409 35.8121
rtibia 29.6161
rfoot -28.0281 -29.2794
rtoes 17.0191
lfemur -19.7695 21.6446 -26.8046
ltibia 39.1176
lfoot 46.9505 22.8024
ltoes -13.8132
